<?xml version="1.0" encoding="UTF-8" standalone="no"?>
<svg
   xmlns:dc="http://purl.org/dc/elements/1.1/"
   xmlns:cc="http://creativecommons.org/ns#"
   xmlns:rdf="http://www.w3.org/1999/02/22-rdf-syntax-ns#"
   xmlns:svg="http://www.w3.org/2000/svg"
   xmlns="http://www.w3.org/2000/svg"
   id="svg870"
   version="1.1"
   viewBox="0 0 1402 348"
   height="61.3865mm"
   width="247.31mm">
  <metadata
     id="metadata876">
    <rdf:RDF>
      <cc:Work
         rdf:about="">
        <dc:format>image/svg+xml</dc:format>
        <dc:type
           rdf:resource="http://purl.org/dc/dcmitype/StillImage" />
        <dc:title></dc:title>
      </cc:Work>
    </rdf:RDF>
  </metadata>
  <defs
     id="defs874" />
  <path
     style="fill:#ff0045;fill-opacity:1;stroke:#ff0045;stroke-opacity:1"
     d="M 202.00,34.42            C 202.00,34.42 117.00,44.58 117.00,44.58              117.00,44.58 94.00,47.42 94.00,47.42              91.46,47.78 86.30,48.29 84.21,49.43              81.54,50.89 79.91,54.45 78.32,57.00              78.32,57.00 67.00,75.00 67.00,75.00              67.00,75.00 34.68,127.00 34.68,127.00              31.84,131.50 19.02,151.51 18.06,155.00              16.84,159.42 19.83,164.84 21.31,169.00              21.31,169.00 31.95,200.00 31.95,200.00              31.95,200.00 48.67,248.00 48.67,248.00              50.12,252.29 55.33,267.97 57.65,270.62              60.10,273.43 71.13,279.18 75.00,281.42              75.00,281.42 110.00,301.85 110.00,301.85              110.00,301.85 139.00,318.85 139.00,318.85              143.72,321.56 148.27,325.42 154.00,324.66              154.00,324.66 181.00,317.87 181.00,317.87              181.00,317.87 242.00,301.88 242.00,301.88              242.00,301.88 268.00,295.37 268.00,295.37              271.48,294.50 279.21,292.92 281.91,291.15              285.20,289.00 290.09,281.48 292.79,278.00              292.79,278.00 316.13,247.00 316.13,247.00              316.13,247.00 333.63,224.00 333.63,224.00              340.84,214.43 344.13,213.16 344.00,201.00              343.92,194.62 340.79,181.92 339.40,175.00              339.40,175.00 328.35,124.00 328.35,124.00              328.35,124.00 324.21,105.00 324.21,105.00              323.59,102.09 323.10,97.70 321.27,95.38              319.08,92.59 305.97,85.98 302.00,83.72              302.00,83.72 258.00,59.00 258.00,59.00              258.00,59.00 232.00,44.58 232.00,44.58              220.90,38.21 215.26,32.81 202.00,34.42 Z            M 209.00,42.00            C 209.00,42.00 199.00,122.00 199.00,122.00              199.00,122.00 211.00,43.00 211.00,43.00              216.67,46.72 222.19,58.79 225.72,65.00              225.72,65.00 238.57,87.00 238.57,87.00              240.00,89.49 243.48,95.30 243.45,98.00              243.41,101.82 233.66,114.27 231.00,118.00              231.00,118.00 195.21,169.00 195.21,169.00              193.28,164.64 194.75,157.74 195.21,153.00              195.21,153.00 199.00,123.00 199.00,123.00              199.00,123.00 192.00,166.00 192.00,166.00              190.07,161.81 187.81,147.33 186.92,142.00              186.92,142.00 179.75,101.00 179.75,101.00              179.02,96.61 175.59,80.22 176.64,77.00              177.52,74.26 182.33,69.41 184.42,67.00              189.18,61.52 203.54,44.70 209.00,42.00 Z            M 204.00,43.00            C 200.08,49.72 189.98,59.59 184.42,66.00              181.92,68.89 177.79,74.21 174.00,75.11              171.10,75.80 155.99,71.83 152.00,71.00              152.00,71.00 92.00,57.00 92.00,57.00              92.00,57.00 128.00,51.72 128.00,51.72              128.00,51.72 204.00,43.00 204.00,43.00 Z            M 218.00,47.00            C 218.00,47.00 246.00,62.14 246.00,62.14              246.00,62.14 307.00,96.00 307.00,96.00              302.78,97.67 296.60,96.99 292.00,97.00              292.00,97.00 276.00,98.00 276.00,98.00              276.00,98.00 254.00,98.00 254.00,98.00              251.69,98.00 248.37,98.22 246.38,96.98              244.29,95.67 241.17,90.26 239.87,88.00              239.87,88.00 229.15,69.00 229.15,69.00              226.49,64.33 217.71,51.54 218.00,47.00 Z            M 173.00,77.00            C 170.20,82.93 154.46,99.07 149.07,105.00              147.06,107.21 143.09,112.80 140.00,112.80              136.51,112.80 128.70,102.84 126.16,100.00              126.16,100.00 103.93,75.00 103.93,75.00              99.55,70.18 92.97,63.53 90.00,58.00              90.00,58.00 117.00,64.12 117.00,64.12              117.00,64.12 143.00,69.88 143.00,69.88              143.00,69.88 173.00,77.00 173.00,77.00 Z            M 89.00,59.00            C 89.00,59.00 123.28,98.00 123.28,98.00              123.28,98.00 138.00,116.00 138.00,116.00              138.00,116.00 69.00,139.86 69.00,139.86              69.00,139.86 29.00,153.00 29.00,153.00              29.00,153.00 46.58,124.00 46.58,124.00              46.58,124.00 87.00,59.00 87.00,59.00              87.00,59.00 89.00,59.00 89.00,59.00 Z            M 175.00,79.00            C 175.00,79.00 181.58,117.00 181.58,117.00              181.58,117.00 185.25,140.00 185.25,140.00              185.25,140.00 190.00,170.00 190.00,170.00              183.02,164.96 161.67,139.26 153.98,131.00              151.58,128.43 142.23,118.98 142.19,116.00              142.16,113.11 148.02,107.12 150.04,105.00              157.42,97.24 166.92,84.79 175.00,79.00 Z            M 313.00,100.00            C 307.99,104.57 299.93,108.42 294.00,112.06              286.84,116.45 271.20,126.90 264.00,129.00              259.52,122.14 249.40,106.45 248.00,99.00              248.00,99.00 290.00,99.00 290.00,99.00              290.00,99.00 313.00,100.00 313.00,100.00 Z            M 246.00,100.00            C 246.00,100.00 263.00,131.00 263.00,131.00              263.00,131.00 218.00,157.80 218.00,157.80              218.00,157.80 196.00,170.00 196.00,170.00              196.00,170.00 227.14,125.00 227.14,125.00              232.23,117.89 239.72,105.23 246.00,100.00 Z            M 315.00,102.00            C 315.00,102.00 322.00,134.00 322.00,134.00              322.65,137.10 324.98,145.30 324.23,147.96              323.19,151.69 314.30,157.39 311.00,159.87              311.00,159.87 271.00,189.00 271.00,189.00              271.00,189.00 266.72,149.00 266.72,149.00              266.35,145.94 264.77,134.33 265.61,132.10              266.94,128.60 274.70,124.61 278.00,122.72              286.17,118.04 307.60,103.77 315.00,102.00 Z            M 189.00,173.00            C 189.00,173.00 154.00,169.28 154.00,169.28              154.00,169.28 137.00,167.84 137.00,167.84              137.00,167.84 107.00,165.00 107.00,165.00              109.12,158.33 124.64,136.31 129.51,129.00              131.18,126.50 136.04,118.20 139.09,118.20              142.62,118.20 149.51,127.27 152.00,130.00              152.00,130.00 175.17,156.00 175.17,156.00              179.95,161.29 185.95,166.50 189.00,173.00 Z            M 134.00,119.00            C 131.40,127.17 118.97,142.70 113.81,151.00              111.66,154.46 107.64,161.92 103.91,163.40              100.59,164.73 86.46,162.44 82.00,162.08              82.00,162.08 46.00,158.83 46.00,158.83              46.00,158.83 27.00,157.00 27.00,157.00              30.80,153.38 35.11,152.63 40.00,151.00              40.00,151.00 59.00,144.33 59.00,144.33              59.00,144.33 102.00,129.58 102.00,129.58              108.82,127.02 127.84,119.95 134.00,119.00 Z            M 264.00,133.00            C 264.00,133.00 269.00,190.00 269.00,190.00              269.00,190.00 238.00,183.42 238.00,183.42              238.00,183.42 195.00,174.00 195.00,174.00              198.77,169.72 204.21,167.34 209.00,164.32              209.00,164.32 242.00,144.40 242.00,144.40              248.33,140.60 256.94,134.34 264.00,133.00 Z            M 325.00,151.00            C 325.00,151.00 330.42,174.00 330.42,174.00              330.42,174.00 337.00,205.00 337.00,205.00              337.00,205.00 305.00,198.21 305.00,198.21              305.00,198.21 273.00,191.00 273.00,191.00              273.00,191.00 273.00,189.00 273.00,189.00              273.00,189.00 325.00,151.00 325.00,151.00 Z            M 110.00,229.00            C 104.39,226.35 96.15,218.23 91.00,213.92              91.00,213.92 52.00,180.42 52.00,180.42              46.42,175.67 31.00,163.51 28.00,158.00              28.00,158.00 46.00,159.83 46.00,159.83              46.00,159.83 84.00,163.72 84.00,163.72              84.00,163.72 102.40,166.74 102.40,166.74              102.40,166.74 105.16,183.00 105.16,183.00              105.16,183.00 110.00,229.00 110.00,229.00 Z            M 29.00,162.00            C 29.00,162.00 45.00,175.41 45.00,175.41              45.00,175.41 88.00,212.27 88.00,212.27              88.00,212.27 109.00,230.00 109.00,230.00              106.24,235.55 101.87,237.31 97.00,240.88              90.16,245.91 69.50,261.51 63.00,264.00              63.00,264.00 37.95,192.00 37.95,192.00              37.95,192.00 31.58,173.00 31.58,173.00              31.58,173.00 29.00,162.00 29.00,162.00 Z            M 189.00,175.00            C 189.00,175.00 152.00,201.72 152.00,201.72              152.00,201.72 112.00,230.00 112.00,230.00              112.00,230.00 108.83,205.00 108.83,205.00              108.83,205.00 105.00,166.00 105.00,166.00              105.00,166.00 142.00,169.91 142.00,169.91              142.00,169.91 189.00,175.00 189.00,175.00 Z            M 196.00,175.00            C 196.00,175.00 228.00,182.42 228.00,182.42              228.00,182.42 267.00,191.00 267.00,191.00              263.81,197.44 247.31,209.50 241.00,214.75              238.76,216.62 234.01,221.27 231.04,220.97              227.97,220.66 223.71,214.40 221.80,212.00              221.80,212.00 201.71,186.00 201.71,186.00              199.33,182.72 195.57,179.25 196.00,175.00 Z            M 193.00,176.00            C 193.00,176.00 218.42,209.00 218.42,209.00              218.42,209.00 227.97,223.00 227.97,223.00              227.97,223.00 223.80,231.00 223.80,231.00              223.80,231.00 210.92,247.00 210.92,247.00              210.92,247.00 173.61,293.00 173.61,293.00              173.61,293.00 154.00,316.00 154.00,316.00              154.00,316.00 160.12,292.00 160.12,292.00              160.12,292.00 176.12,234.00 176.12,234.00              176.12,234.00 187.66,192.00 187.66,192.00              187.66,192.00 193.00,176.00 193.00,176.00 Z            M 190.00,177.00            C 190.00,177.00 184.88,197.00 184.88,197.00              184.88,197.00 171.42,246.00 171.42,246.00              171.42,246.00 152.00,316.00 152.00,316.00              152.00,316.00 150.00,316.00 150.00,316.00              150.00,316.00 123.58,258.00 123.58,258.00              123.58,258.00 112.00,231.00 112.00,231.00              112.00,231.00 170.00,190.14 170.00,190.14              170.00,190.14 190.00,177.00 190.00,177.00 Z            M 335.00,206.00            C 332.90,212.21 322.11,225.21 317.65,231.00              317.65,231.00 292.12,265.00 292.12,265.00              292.12,265.00 281.00,280.00 281.00,280.00              278.18,275.15 278.35,264.89 277.58,259.00              277.58,259.00 272.92,213.00 272.92,213.00              272.41,206.65 270.35,197.98 272.00,192.00              272.00,192.00 335.00,206.00 335.00,206.00 Z            M 270.00,193.00            C 270.00,193.00 271.83,213.00 271.83,213.00              271.83,213.00 274.17,240.00 274.17,240.00              274.17,240.00 278.00,283.00 278.00,283.00              272.68,279.01 269.84,274.17 265.79,269.00              265.79,269.00 245.87,243.00 245.87,243.00              241.35,237.02 234.31,229.97 232.00,223.00              232.00,223.00 270.00,193.00 270.00,193.00 Z            M 231.00,225.00            C 231.00,225.00 261.65,265.00 261.65,265.00              266.05,270.71 273.30,278.12 275.00,285.00              275.00,285.00 229.00,296.85 229.00,296.85              229.00,296.85 192.00,306.15 192.00,306.15              192.00,306.15 158.00,315.00 158.00,315.00              162.01,307.21 169.17,299.85 174.74,293.00              174.74,293.00 201.39,260.00 201.39,260.00              207.78,252.13 224.35,229.99 231.00,225.00 Z            M 111.00,233.00            C 111.00,233.00 135.86,288.00 135.86,288.00              135.86,288.00 147.00,313.00 147.00,313.00              147.00,313.00 122.00,299.20 122.00,299.20              122.00,299.20 66.00,267.00 66.00,267.00              67.76,261.54 73.51,258.79 78.00,255.58              84.83,250.69 104.75,235.66 111.00,233.00 Z"
     stroke-width="1"
     stroke="black"
     fill="none"
     id="Selection" />
  <path
     style="fill:#ffffff;stroke-width:0.99774374;stroke-miterlimit:4;stroke-dasharray:none;stroke:#ffffff;stroke-opacity:1"
     id="Selection #2"
     fill="none"
     stroke="#000000"
     stroke-width="1"
     d="m 349.85104,140.68615 c 0,0 20,0 20,0 0,0 4,-16 4,-16 0,0 24,0 24,0 12.34,0.23 6.38,10.68 12.51,14.98 2.37,1.67 15.86,1.02 19.49,1.02 0,0 -20.05,-54.000001 -20.05,-54.000001 0,0 -8.95,-25 -8.95,-25 0,0 -14,0 -14,0 0,0 -7.49,1.02 -7.49,1.02 0,0 -7.46,16.98 -7.46,16.98 0,0 -13.86,37.000001 -13.86,37.000001 0,0 -8.19,24 -8.19,24 z m 89,-79.000001 c 0,0 0,79.000001 0,79.000001 0,0 48,0 48,0 0,0 0,-15 0,-15 0,0 -29,0 -29,0 0,0 0,-64.000001 0,-64.000001 0,0 -19,0 -19,0 z m 59,0 c 0,0 0,79.000001 0,79.000001 0,0 49,0 49,0 0,0 0,-15 0,-15 0,0 -30,0 -30,0 0,0 0,-18 0,-18 0,0 29,0 29,0 0,0 0,-15.000001 0,-15.000001 0,0 -29,0 -29,0 0,0 0,-16 0,-16 0,0 30,0 30,0 0,0 0,-15 0,-15 0,0 -49,0 -49,0 z m 59,0 c 0,0 18,28 18,28 0,0 6.49,11.580001 6.49,11.580001 0,0 -6.82,11.42 -6.82,11.42 0,0 -18.67,28 -18.67,28 0,0 19.9,-0.6 19.9,-0.6 0,0 5.78,-6.4 5.78,-6.4 0,0 10.32,-18 10.32,-18 0,0 10.81,16 10.81,16 0,0 6.37,7.98 6.37,7.98 0,0 19.82,1.02 19.82,1.02 -2.35,-6.15 -12.87,-21.01 -17.14,-27 -2.03,-2.84 -7.48,-9.63 -7.32,-13 0.13,-2.830001 5.06,-9.400001 6.79,-12.000001 0,0 17.67,-27 17.67,-27 0,0 -19.68,0.57 -19.68,0.57 0,0 -5.63,6.43 -5.63,6.43 0,0 -9.69,17 -9.69,17 0,0 -2,0 -2,0 0,0 -9.95,-17 -9.95,-17 0,0 -5.38,-6.43 -5.38,-6.43 0,0 -19.67,-0.57 -19.67,-0.57 z m -167,15 c 0,0 10,33.000001 10,33.000001 0,0 -20,0 -20,0 0.48,-5.28 7.39,-28.610001 10,-33.000001 z m 151,192.000001 c 0,0 -4,15 -4,15 16.75,5.58 44.34,10.51 53.47,-10 1.05,-2.35 2.13,-6.44 2.34,-9 1.01,-12.13 -8.73,-20.16 -18.81,-24.58 -4.01,-1.75 -11.82,-4.49 -14.48,-7.75 -2.95,-3.62 -1.33,-7.35 2.52,-9.51 3.83,-1.84 8.94,-1.02 12.96,0 0,0 12,2.84 12,2.84 0,0 3,-14 3,-14 -17.76,-7.05 -50.87,-10.09 -51.96,17 -0.56,13.84 6.13,19.41 17.96,24.82 4.85,2.22 12.45,4.61 15.39,9.22 4.18,6.57 -3.93,10.48 -9.39,10.86 -7.46,0.53 -14.16,-2.53 -21,-4.9 z m 63,0 c 0,0 -4,15 -4,15 16.75,5.58 44.34,10.51 53.47,-10 1.05,-2.35 2.13,-6.44 2.34,-9 1.01,-12.13 -8.73,-20.16 -18.81,-24.58 -4.01,-1.75 -11.82,-4.49 -14.48,-7.75 -2.95,-3.62 -1.33,-7.35 2.52,-9.51 3.83,-1.84 8.94,-1.02 12.96,0 0,0 12,2.84 12,2.84 0,0 3,-14 3,-14 -17.76,-7.05 -50.87,-10.09 -51.96,17 -0.56,13.84 6.13,19.41 17.96,24.82 4.85,2.22 12.45,4.61 15.39,9.22 4.18,6.57 -3.93,10.48 -9.39,10.86 -7.46,0.53 -14.16,-2.53 -21,-4.9 z m -245,-60 c 0,0 -2.83,34 -2.83,34 0,0 -1.34,22 -1.34,22 0,0 -1.83,23 -1.83,23 0,0 19,0 19,0 0,0 1,-13 1,-13 0,0 1,-30 1,-30 0,0 11.25,21 11.25,21 0,0 5.24,8.98 5.24,8.98 0,0 7.51,1.02 7.51,1.02 0,0 9.79,-1.02 9.79,-1.02 0,0 5.46,-7.98 5.46,-7.98 0,0 9.75,-22 9.75,-22 2.57,6.18 1.97,8.56 2,15 0,0 2,28 2,28 0,0 19,0 19,0 0,0 -4.09,-54 -4.09,-54 0,0 -1.91,-25 -1.91,-25 0,0 -17.37,0.99 -17.37,0.99 0,0 -6.87,12.01 -6.87,12.01 0,0 -15.76,35 -15.76,35 0,0 -10.31,-21 -10.31,-21 0,0 -6.83,-14 -6.83,-14 -3.04,-6.83 -3.48,-12.85 -11.86,-13 0,0 -12,0 -12,0 z m 99,0 c 0,0 0.58,51 0.58,51 1.04,7.82 0.85,12.47 6.63,18.97 12.14,13.61 41.48,13.59 53.6,0 5.83,-6.51 7.15,-15.51 7.19,-23.97 0,0 0,-46 0,-46 0,0 -20,0 -20,0 0,0 0,49 0,49 -0.21,17.21 -17.24,19.63 -24.58,10.89 -3.02,-3.58 -3.36,-7.43 -3.42,-11.89 0,0 0,-48 0,-48 0,0 -20,0 -20,0 z m 209,0 c 0,0 0,79 0,79 0,0 49,0 49,0 0,0 0,-15 0,-15 0,0 -30,0 -30,0 0,0 0,-18 0,-18 0,0 29,0 29,0 0,0 0,-15 0,-15 0,0 -29,0 -29,0 0,0 0,-16 0,-16 0,0 30,0 30,0 0,0 0,-15 0,-15 0,0 -49,0 -49,0 z m 63,0 c 0,0 0,79 0,79 0,0 48,0 48,0 0,0 0,-15 0,-15 0,0 -29,0 -29,0 0,0 0,-64 0,-64 0,0 -19,0 -19,0 z m 49,0 c 0,0 21,79 21,79 0,0 14,0 14,0 7.91,-0.15 6.84,-1.86 10.29,-14 0,0 6.13,-23 6.13,-23 0,0 5.58,-21 5.58,-21 0,0 7.88,27 7.88,27 0,0 8.12,31 8.12,31 0,0 12,0 12,0 2.13,0 5.73,0.23 7.49,-1.02 2.68,-1.9 4.94,-13.42 5.93,-16.98 0,0 16.58,-61 16.58,-61 0,0 -20,0 -20,0 0,0 -12,53 -12,53 0,0 -10.88,-39 -10.88,-39 -3.32,-12.56 -2.51,-13.94 -11.12,-14 0,0 -15,0 -15,0 0,0 -14,53 -14,53 0,0 -12,-53 -12,-53 0,0 -20,0 -20,0 z m 125,0 c 0,0 0,79 0,79 0,0 19,0 19,0 0,0 0,-33 0,-33 0,0 29,0 29,0 0,0 0,33 0,33 0,0 20,0 20,0 0,0 0,-79 0,-79 0,0 -20,0 -20,0 0,0 0,31 0,31 0,0 -29,0 -29,0 0,0 0,-31 0,-31 0,0 -19,0 -19,0 z m 84,0 c 0,0 0,79 0,79 0,0 19.99996,0 19.99996,0 0,0 0,-79 0,-79 0,0 -19.99996,0 -19.99996,0 z m 29.99996,0 c 0,0 0,15 0,15 0,0 21,0 21,0 0,0 0,64 0,64 0,0 19.0001,0 19.0001,0 0,0 0,-64 0,-64 0,0 22,0 22,0 0,0 0,-15 0,-15 0,0 -62.0001,0 -62.0001,0 z m 71.0001,0 c 0,0 0,79 0,79 0,0 49,0 49,0 0,0 0,-15 0,-15 0,0 -30,0 -30,0 0,0 0,-18 0,-18 0,0 29,0 29,0 0,0 0,-15 0,-15 0,0 -29,0 -29,0 0,0 0,-16 0,-16 0,0 30,0 30,0 0,0 0,-15 0,-15 0,0 -49,0 -49,0 z" />
</svg>
