<?xml version="1.0" encoding="UTF-8" standalone="no"?>
<svg
   xmlns:dc="http://purl.org/dc/elements/1.1/"
   xmlns:cc="http://creativecommons.org/ns#"
   xmlns:rdf="http://www.w3.org/1999/02/22-rdf-syntax-ns#"
   xmlns:svg="http://www.w3.org/2000/svg"
   xmlns="http://www.w3.org/2000/svg"
   xmlns:xlink="http://www.w3.org/1999/xlink"
   xmlns:sodipodi="http://sodipodi.sourceforge.net/DTD/sodipodi-0.dtd"
   xmlns:inkscape="http://www.inkscape.org/namespaces/inkscape"
   inkscape:version="1.0 (4035a4f, 2020-05-01)"
   sodipodi:docname="Background.svg"
   id="svg1457"
   version="1.1"
   viewBox="0 0 1920 1080"
   height="15in"
   width="26.6667in">
  <metadata
     id="metadata1463">
    <rdf:RDF>
      <cc:Work
         rdf:about="">
        <dc:format>image/svg+xml</dc:format>
        <dc:type
           rdf:resource="http://purl.org/dc/dcmitype/StillImage" />
        <dc:title></dc:title>
      </cc:Work>
    </rdf:RDF>
  </metadata>
  <defs
     id="defs1461">
    <linearGradient
       gradientTransform="translate(0.988545,-0.00735023)"
       inkscape:collect="always"
       xlink:href="#linearGradient1505"
       id="linearGradient1507"
       x1="932.87286"
       y1="1083.272"
       x2="934.90521"
       y2="254.05066"
       gradientUnits="userSpaceOnUse" />
    <linearGradient
       inkscape:collect="always"
       id="linearGradient1505">
      <stop
         style="stop-color:#3b3bf1;stop-opacity:1"
         offset="0"
         id="stop1501" />
      <stop
         style="stop-color:#4d4db2;stop-opacity:1"
         offset="1"
         id="stop1503" />
    </linearGradient>
  </defs>
  <sodipodi:namedview
     inkscape:current-layer="layer4"
     inkscape:window-maximized="0"
     inkscape:window-y="23"
     inkscape:window-x="0"
     inkscape:cy="957.26256"
     inkscape:cx="1122.6242"
     inkscape:zoom="0.26093717"
     showgrid="false"
     id="namedview1459"
     inkscape:window-height="806"
     inkscape:window-width="1438"
     inkscape:pageshadow="2"
     inkscape:pageopacity="0"
     guidetolerance="10"
     gridtolerance="10"
     objecttolerance="10"
     borderopacity="1"
     bordercolor="#666666"
     pagecolor="#ffffff" />
  <g
     inkscape:label="Background"
     id="layer1"
     inkscape:groupmode="layer">
    <rect
       y="-2.0324044"
       x="2.0312128"
       height="1082.3844"
       width="1917.9095"
       id="rect1560"
       style="fill:#0b0b3f;fill-opacity:1;stroke:#000000;stroke-width:0.498898;stroke-opacity:0" />
  </g>
  <g
     inkscape:label="Hills"
     id="layer2"
     inkscape:groupmode="layer" />
  <g
     inkscape:label="HillsBackground"
     id="layer3"
     inkscape:groupmode="layer" />
  <g
     inkscape:label="Mountain"
     id="layer4"
     inkscape:groupmode="layer">
    <path
       id="Selection"
       fill="none"
       stroke="black"
       stroke-width="0.999997"
       d="m 239.98853,1079.9926 c 0,0 225.99999,0 225.99999,0 0,0 0,-716.99996 0,-716.99996 -0.05,-30.11999 -12.39999,-60.78 -34.08999,-81.83 -34.98,-33.95999 -90.08,-42.14999 -132.91,-18.30999 -9.85,5.48 -21.05,13.64 -28.42,22.13999 -8.8,10.16 -15.84,19.43 -20.98,32 -5.94,14.55 -9.57999,30.22001 -9.6,46 0,0 0,716.99996 0,716.99996 z m -233.999985,0 c 0,0 225.999985,0 225.999985,0 0,0 0,-684.99996 0,-684.99996 -0.05,-30.12 -12.4,-60.78 -34.09,-81.83 -34.98,-33.96 -90.07999,-42.14999 -132.909985,-18.31 -9.85,5.48 -21.05,13.64 -28.42,22.14 -8.8,10.16 -15.84,19.43 -20.98,32 -5.94,14.55 -9.58,30.22 -9.6,46 0,0 0,684.99996 0,684.99996 z m 1683.999955,0 c 0,0 226.0001,0 226.0001,0 0,0 0,-660.99996 0,-660.99996 -0.05,-30.12 -12.4001,-60.78 -34.0901,-81.82999 -34.98,-33.96001 -90.0799,-42.15001 -132.9099,-18.31001 -9.85,5.48 -21.0501,13.64 -28.42,22.14 -8.8001,10.16 -15.84,19.43 -20.9801,32 -5.94,14.55 -9.5799,30.22 -9.6,46 0,0 0,660.99996 0,660.99996 z m -1215.99997,0 c 0,0 225.99995,0 225.99995,0 0,0 0,-411.99997 0,-411.99997 0,0 0,-205.99999 0,-205.99999 -0.55,-46.78 -30.89996,-89.61 -74.99996,-105.3 -9.15,-3.26 -18.39,-4.84 -27.99999,-5.86 -5.30001,-0.57 -6.3,-0.96 -12,-0.83 -60.87,1.46 -110.28,50.97 -111,111.99 0,0 0,205.99999 0,205.99999 0,0 0,411.99997 0,411.99997 z m 749.00007,0 c 0,0 226,0 226,0 0,0 0,-575.99996 0,-575.99996 -0.1,-61.91 -48.93,-112.5 -111,-113.99 -6.35,-0.15 -7.26,0.38 -13,0.92 -58.38,5.4 -101.91,54.77 -102,113.07 0,0 0,575.99996 0,575.99996 z m 234,0 c 0,0 226,0 226,0 0,0 0,-517.99997 0,-517.99997 -0.1,-61.90999 -48.93,-112.49999 -111,-113.98999 -6.3501,-0.15 -7.26,0.38 -13,0.92 -58.38,5.4 -101.91,54.77 -102,113.06999 0,0 0,517.99997 0,517.99997 z"
       style="fill:url(#linearGradient1507);fill-opacity:1;stroke:#000000;stroke-opacity:0" />
  </g>
</svg>
