<?xml version="1.0" encoding="UTF-8" standalone="no"?>
<!DOCTYPE svg PUBLIC "-//W3C//DTD SVG 20010904//EN"
              "http://www.w3.org/TR/2001/REC-SVG-20010904/DTD/svg10.dtd">

<svg xmlns="http://www.w3.org/2000/svg"
     width="26.6667in" height="15in"
     viewBox="0 0 1920 1080">
  <path id="HillsOne"
        fill="none" stroke="black" stroke-width="1"
        d="M 0.00,846.00
           C 0.00,846.00 0.00,1080.00 0.00,1080.00
             0.00,1080.00 1920.00,1080.00 1920.00,1080.00
             1920.00,1080.00 1920.00,854.00 1920.00,854.00
             1920.00,854.00 1919.04,841.00 1919.04,841.00
             1919.04,841.00 1920.00,826.00 1920.00,826.00
             1920.00,826.00 1920.00,810.00 1920.00,810.00
             1920.00,810.00 1863.00,810.00 1863.00,810.00
             1849.99,810.00 1836.86,810.68 1824.00,808.39
             1809.57,805.81 1796.84,800.65 1784.00,793.69
             1751.12,775.87 1711.26,732.99 1682.00,707.28
             1658.27,686.44 1632.53,667.07 1604.00,653.26
             1572.67,638.09 1539.56,630.28 1505.00,627.91
             1505.00,627.91 1495.00,627.00 1495.00,627.00
             1459.78,626.59 1430.72,629.83 1397.00,640.74
             1356.86,653.74 1316.46,679.83 1284.00,706.42
             1251.75,732.85 1212.10,770.60 1179.00,792.67
             1158.14,806.58 1130.58,819.96 1105.00,820.00
             1105.00,820.00 1090.00,820.00 1090.00,820.00
             1076.55,819.84 1056.78,816.54 1044.00,812.33
             1044.00,812.33 1012.00,799.08 1012.00,799.08
             1001.33,795.42 981.28,792.14 970.00,792.00
             949.80,791.77 926.26,795.36 908.00,804.26
             885.85,815.05 880.23,825.54 850.00,836.31
             838.68,840.34 820.92,844.98 809.00,845.00
             779.77,845.05 755.22,842.44 727.00,834.29
             693.77,824.70 669.23,810.80 642.00,789.58
             642.00,789.58 569.00,728.15 569.00,728.15
             528.34,698.20 491.21,683.21 441.00,677.84
             441.00,677.84 420.00,676.00 420.00,676.00
             420.00,676.00 396.00,676.00 396.00,676.00
             396.00,676.00 374.00,677.84 374.00,677.84
             335.88,681.91 301.32,692.65 269.00,713.69
             221.35,744.72 192.89,786.00 138.00,815.69
             107.04,832.44 68.96,841.53 34.00,844.09
             34.00,844.09 24.00,845.00 24.00,845.00
             24.00,845.00 0.00,846.00 0.00,846.00 Z" />
</svg>
