<?xml version="1.0" encoding="UTF-8" standalone="no"?>
<!DOCTYPE svg PUBLIC "-//W3C//DTD SVG 20010904//EN"
              "http://www.w3.org/TR/2001/REC-SVG-20010904/DTD/svg10.dtd">

<svg xmlns="http://www.w3.org/2000/svg"
     width="26.6667in" height="15in"
     viewBox="0 0 1920 1080">
  <path id="HillsTwo"
        fill="none" stroke="black" stroke-width="1"
        d="M 0.00,710.00
           C 0.00,710.00 0.00,1080.00 0.00,1080.00
             0.00,1080.00 1920.00,1080.00 1920.00,1080.00
             1920.00,1080.00 1920.00,854.00 1920.00,854.00
             1920.00,854.00 1919.04,841.00 1919.04,841.00
             1919.04,841.00 1920.00,826.00 1920.00,826.00
             1920.00,826.00 1920.00,809.00 1920.00,809.00
             1920.00,809.00 1920.00,710.00 1920.00,710.00
             1884.68,707.11 1863.18,675.44 1826.00,675.00
             1816.65,674.89 1808.23,674.59 1799.00,676.45
             1779.20,680.43 1758.46,692.59 1741.00,702.58
             1731.26,708.15 1721.44,713.41 1711.00,717.55
             1707.92,718.77 1701.13,721.50 1698.00,720.52
             1694.54,719.42 1684.38,709.35 1681.00,706.42
             1668.88,695.96 1655.25,684.60 1642.00,675.67
             1598.41,646.29 1557.40,631.50 1505.00,627.91
             1505.00,627.91 1495.00,627.00 1495.00,627.00
             1461.00,626.61 1428.38,629.97 1396.00,641.08
             1341.87,659.64 1301.93,690.86 1259.00,727.42
             1232.70,749.82 1199.17,781.01 1170.00,798.40
             1160.13,804.28 1155.61,806.62 1145.00,810.99
             1141.41,812.47 1136.93,814.59 1133.00,814.06
             1129.40,813.57 1116.08,807.75 1112.00,806.00
             1090.80,796.91 1071.90,784.05 1053.00,771.02
             1017.95,746.87 994.62,732.10 951.00,728.91
             951.00,728.91 941.00,728.00 941.00,728.00
             911.92,727.66 887.50,730.04 860.00,740.42
             840.66,747.73 823.03,758.76 806.00,770.34
             781.43,787.06 760.47,803.92 733.00,816.30
             727.51,818.78 710.33,826.14 705.00,826.10
             702.05,826.08 696.77,823.53 694.00,822.22
             694.00,822.22 673.00,811.00 673.00,811.00
             644.05,793.60 621.29,772.25 596.00,750.28
             575.11,732.14 552.85,714.69 528.00,702.27
             497.52,687.03 463.82,679.28 430.00,676.91
             430.00,676.91 418.00,676.00 418.00,676.00
             418.00,676.00 396.00,676.00 396.00,676.00
             396.00,676.00 374.00,677.84 374.00,677.84
             335.40,681.96 296.97,693.85 265.00,716.42
             241.60,732.94 227.12,747.12 206.00,765.42
             206.00,765.42 190.00,779.41 190.00,779.41
             188.22,780.90 184.18,784.61 182.00,784.97
             178.50,785.56 169.90,776.63 167.00,774.13
             154.13,763.07 140.48,752.68 126.00,743.81
             97.44,726.32 69.09,716.47 36.00,711.87
             29.40,710.95 22.67,710.01 16.00,710.00
             16.00,710.00 0.00,710.00 0.00,710.00 Z
           M 1919.00,711.00
           C 1919.00,711.00 1911.00,712.00 1911.00,712.00
             1911.00,712.00 1919.00,711.00 1919.00,711.00 Z
           M 1899.00,712.00
           C 1899.00,712.00 1892.00,713.00 1892.00,713.00
             1892.00,713.00 1899.00,712.00 1899.00,712.00 Z
           M 1882.00,713.00
           C 1882.00,713.00 1874.00,714.00 1874.00,714.00
             1874.00,714.00 1882.00,713.00 1882.00,713.00 Z
           M 1863.00,714.00
           C 1863.00,714.00 1856.00,715.00 1856.00,715.00
             1856.00,715.00 1863.00,714.00 1863.00,714.00 Z
           M 1845.00,715.00
           C 1845.00,715.00 1837.00,716.00 1837.00,716.00
             1837.00,716.00 1845.00,715.00 1845.00,715.00 Z
           M 1826.00,716.00
           C 1826.00,716.00 1818.00,717.00 1818.00,717.00
             1818.00,717.00 1826.00,716.00 1826.00,716.00 Z
           M 1807.00,717.00
           C 1807.00,717.00 1799.00,718.00 1799.00,718.00
             1799.00,718.00 1807.00,717.00 1807.00,717.00 Z
           M 1789.00,718.00
           C 1789.00,718.00 1782.00,719.00 1782.00,719.00
             1782.00,719.00 1789.00,718.00 1789.00,718.00 Z
           M 1770.00,719.00
           C 1770.00,719.00 1763.00,720.00 1763.00,720.00
             1763.00,720.00 1770.00,719.00 1770.00,719.00 Z
           M 1752.00,720.00
           C 1752.00,720.00 1744.00,721.00 1744.00,721.00
             1744.00,721.00 1752.00,720.00 1752.00,720.00 Z
           M 1734.00,721.00
           C 1734.00,721.00 1727.00,722.00 1727.00,722.00
             1727.00,722.00 1734.00,721.00 1734.00,721.00 Z
           M 1715.00,722.00
           C 1715.00,722.00 1707.00,723.00 1707.00,723.00
             1707.00,723.00 1715.00,722.00 1715.00,722.00 Z
           M 1700.00,723.00
           C 1700.00,723.00 1700.00,724.00 1700.00,724.00
             1700.00,724.00 1699.00,723.00 1699.00,723.00
             1699.00,723.00 1700.00,723.00 1700.00,723.00 Z
           M 1701.00,724.00
           C 1701.00,724.00 1701.00,725.00 1701.00,725.00
             1701.00,725.00 1700.00,724.00 1700.00,724.00
             1700.00,724.00 1701.00,724.00 1701.00,724.00 Z
           M 1702.00,725.00
           C 1702.00,725.00 1702.00,726.00 1702.00,726.00
             1702.00,726.00 1701.00,725.00 1701.00,725.00
             1701.00,725.00 1702.00,725.00 1702.00,725.00 Z
           M 1703.00,726.00
           C 1703.00,726.00 1703.00,727.00 1703.00,727.00
             1703.00,727.00 1702.00,726.00 1702.00,726.00
             1702.00,726.00 1703.00,726.00 1703.00,726.00 Z
           M 1704.00,727.00
           C 1704.00,727.00 1704.00,728.00 1704.00,728.00
             1704.00,728.00 1703.00,727.00 1703.00,727.00
             1703.00,727.00 1704.00,727.00 1704.00,727.00 Z
           M 1712.00,734.00
           C 1712.00,734.00 1712.00,735.00 1712.00,735.00
             1712.00,735.00 1711.00,734.00 1711.00,734.00
             1711.00,734.00 1712.00,734.00 1712.00,734.00 Z
           M 1713.00,735.00
           C 1713.00,735.00 1713.00,736.00 1713.00,736.00
             1713.00,736.00 1712.00,735.00 1712.00,735.00
             1712.00,735.00 1713.00,735.00 1713.00,735.00 Z
           M 1714.00,736.00
           C 1714.00,736.00 1714.00,737.00 1714.00,737.00
             1714.00,737.00 1713.00,736.00 1713.00,736.00
             1713.00,736.00 1714.00,736.00 1714.00,736.00 Z
           M 1715.00,737.00
           C 1715.00,737.00 1715.00,738.00 1715.00,738.00
             1715.00,738.00 1714.00,737.00 1714.00,737.00
             1714.00,737.00 1715.00,737.00 1715.00,737.00 Z
           M 1716.00,738.00
           C 1716.00,738.00 1716.00,739.00 1716.00,739.00
             1716.00,739.00 1715.00,738.00 1715.00,738.00
             1715.00,738.00 1716.00,738.00 1716.00,738.00 Z
           M 1717.00,739.00
           C 1717.00,739.00 1717.00,740.00 1717.00,740.00
             1717.00,740.00 1716.00,739.00 1716.00,739.00
             1716.00,739.00 1717.00,739.00 1717.00,739.00 Z
           M 1718.00,740.00
           C 1718.00,740.00 1718.00,741.00 1718.00,741.00
             1718.00,741.00 1717.00,740.00 1717.00,740.00
             1717.00,740.00 1718.00,740.00 1718.00,740.00 Z
           M 1719.00,741.00
           C 1719.00,741.00 1719.00,742.00 1719.00,742.00
             1719.00,742.00 1718.00,741.00 1718.00,741.00
             1718.00,741.00 1719.00,741.00 1719.00,741.00 Z
           M 1720.00,742.00
           C 1720.00,742.00 1720.00,743.00 1720.00,743.00
             1720.00,743.00 1719.00,742.00 1719.00,742.00
             1719.00,742.00 1720.00,742.00 1720.00,742.00 Z
           M 1728.00,749.00
           C 1728.00,749.00 1728.00,750.00 1728.00,750.00
             1728.00,750.00 1727.00,749.00 1727.00,749.00
             1727.00,749.00 1728.00,749.00 1728.00,749.00 Z
           M 1729.00,750.00
           C 1729.00,750.00 1729.00,751.00 1729.00,751.00
             1729.00,751.00 1728.00,750.00 1728.00,750.00
             1728.00,750.00 1729.00,750.00 1729.00,750.00 Z
           M 1730.00,751.00
           C 1730.00,751.00 1730.00,752.00 1730.00,752.00
             1730.00,752.00 1729.00,751.00 1729.00,751.00
             1729.00,751.00 1730.00,751.00 1730.00,751.00 Z
           M 1731.00,752.00
           C 1731.00,752.00 1731.00,753.00 1731.00,753.00
             1731.00,753.00 1730.00,752.00 1730.00,752.00
             1730.00,752.00 1731.00,752.00 1731.00,752.00 Z
           M 1732.00,753.00
           C 1732.00,753.00 1732.00,754.00 1732.00,754.00
             1732.00,754.00 1731.00,753.00 1731.00,753.00
             1731.00,753.00 1732.00,753.00 1732.00,753.00 Z
           M 1733.00,754.00
           C 1733.00,754.00 1733.00,755.00 1733.00,755.00
             1733.00,755.00 1732.00,754.00 1732.00,754.00
             1732.00,754.00 1733.00,754.00 1733.00,754.00 Z
           M 1734.00,755.00
           C 1734.00,755.00 1734.00,756.00 1734.00,756.00
             1734.00,756.00 1733.00,755.00 1733.00,755.00
             1733.00,755.00 1734.00,755.00 1734.00,755.00 Z
           M 1740.00,760.00
           C 1740.00,760.00 1740.00,761.00 1740.00,761.00
             1740.00,761.00 1739.00,760.00 1739.00,760.00
             1739.00,760.00 1740.00,760.00 1740.00,760.00 Z
           M 1741.00,761.00
           C 1741.00,761.00 1741.00,762.00 1741.00,762.00
             1741.00,762.00 1740.00,761.00 1740.00,761.00
             1740.00,761.00 1741.00,761.00 1741.00,761.00 Z
           M 1742.00,762.00
           C 1742.00,762.00 1742.00,763.00 1742.00,763.00
             1742.00,763.00 1741.00,762.00 1741.00,762.00
             1741.00,762.00 1742.00,762.00 1742.00,762.00 Z
           M 1743.00,763.00
           C 1743.00,763.00 1743.00,764.00 1743.00,764.00
             1743.00,764.00 1742.00,763.00 1742.00,763.00
             1742.00,763.00 1743.00,763.00 1743.00,763.00 Z
           M 1748.00,767.00
           C 1748.00,767.00 1748.00,768.00 1748.00,768.00
             1748.00,768.00 1747.00,767.00 1747.00,767.00
             1747.00,767.00 1748.00,767.00 1748.00,767.00 Z
           M 1749.00,768.00
           C 1749.00,768.00 1749.00,769.00 1749.00,769.00
             1749.00,769.00 1748.00,768.00 1748.00,768.00
             1748.00,768.00 1749.00,768.00 1749.00,768.00 Z
           M 1750.00,769.00
           C 1750.00,769.00 1750.00,770.00 1750.00,770.00
             1750.00,770.00 1749.00,769.00 1749.00,769.00
             1749.00,769.00 1750.00,769.00 1750.00,769.00 Z
           M 1754.00,772.00
           C 1754.00,772.00 1754.00,773.00 1754.00,773.00
             1754.00,773.00 1753.00,772.00 1753.00,772.00
             1753.00,772.00 1754.00,772.00 1754.00,772.00 Z
           M 1755.00,773.00
           C 1755.00,773.00 1755.00,774.00 1755.00,774.00
             1755.00,774.00 1754.00,773.00 1754.00,773.00
             1754.00,773.00 1755.00,773.00 1755.00,773.00 Z
           M 1756.00,774.00
           C 1756.00,774.00 1756.00,775.00 1756.00,775.00
             1756.00,775.00 1755.00,774.00 1755.00,774.00
             1755.00,774.00 1756.00,774.00 1756.00,774.00 Z
           M 1759.00,776.00
           C 1759.00,776.00 1759.00,777.00 1759.00,777.00
             1759.00,777.00 1758.00,776.00 1758.00,776.00
             1758.00,776.00 1759.00,776.00 1759.00,776.00 Z
           M 1760.00,777.00
           C 1760.00,777.00 1760.00,778.00 1760.00,778.00
             1760.00,778.00 1759.00,777.00 1759.00,777.00
             1759.00,777.00 1760.00,777.00 1760.00,777.00 Z
           M 1763.00,779.00
           C 1763.00,779.00 1763.00,780.00 1763.00,780.00
             1763.00,780.00 1762.00,779.00 1762.00,779.00
             1762.00,779.00 1763.00,779.00 1763.00,779.00 Z
           M 1764.00,780.00
           C 1764.00,780.00 1764.00,781.00 1764.00,781.00
             1764.00,781.00 1763.00,780.00 1763.00,780.00
             1763.00,780.00 1764.00,780.00 1764.00,780.00 Z
           M 1767.00,782.00
           C 1767.00,782.00 1767.00,783.00 1767.00,783.00
             1767.00,783.00 1766.00,782.00 1766.00,782.00
             1766.00,782.00 1767.00,782.00 1767.00,782.00 Z
           M 1768.00,783.00
           C 1768.00,783.00 1768.00,784.00 1768.00,784.00
             1768.00,784.00 1767.00,783.00 1767.00,783.00
             1767.00,783.00 1768.00,783.00 1768.00,783.00 Z
           M 1770.00,784.00
           C 1770.00,784.00 1770.00,785.00 1770.00,785.00
             1770.00,785.00 1769.00,784.00 1769.00,784.00
             1769.00,784.00 1770.00,784.00 1770.00,784.00 Z
           M 1771.00,785.00
           C 1771.00,785.00 1771.00,786.00 1771.00,786.00
             1771.00,786.00 1770.00,785.00 1770.00,785.00
             1770.00,785.00 1771.00,785.00 1771.00,785.00 Z
           M 1773.00,786.00
           C 1773.00,786.00 1773.00,787.00 1773.00,787.00
             1773.00,787.00 1772.00,786.00 1772.00,786.00
             1772.00,786.00 1773.00,786.00 1773.00,786.00 Z
           M 1774.00,787.00
           C 1774.00,787.00 1774.00,788.00 1774.00,788.00
             1774.00,788.00 1773.00,787.00 1773.00,787.00
             1773.00,787.00 1774.00,787.00 1774.00,787.00 Z
           M 1776.00,788.00
           C 1776.00,788.00 1776.00,789.00 1776.00,789.00
             1776.00,789.00 1775.00,788.00 1775.00,788.00
             1775.00,788.00 1776.00,788.00 1776.00,788.00 Z
           M 1777.00,789.00
           C 1777.00,789.00 1777.00,790.00 1777.00,790.00
             1777.00,790.00 1776.00,789.00 1776.00,789.00
             1776.00,789.00 1777.00,789.00 1777.00,789.00 Z
           M 1779.00,790.00
           C 1779.00,790.00 1779.00,791.00 1779.00,791.00
             1779.00,791.00 1778.00,790.00 1778.00,790.00
             1778.00,790.00 1779.00,790.00 1779.00,790.00 Z
           M 1782.00,792.00
           C 1782.00,792.00 1782.00,793.00 1782.00,793.00
             1782.00,793.00 1781.00,792.00 1781.00,792.00
             1781.00,792.00 1782.00,792.00 1782.00,792.00 Z
           M 1784.00,793.00
           C 1784.00,793.00 1784.00,794.00 1784.00,794.00
             1784.00,794.00 1783.00,793.00 1783.00,793.00
             1783.00,793.00 1784.00,793.00 1784.00,793.00 Z
           M 1786.00,794.00
           C 1786.00,794.00 1786.00,795.00 1786.00,795.00
             1786.00,795.00 1785.00,794.00 1785.00,794.00
             1785.00,794.00 1786.00,794.00 1786.00,794.00 Z
           M 1788.00,795.00
           C 1788.00,795.00 1788.00,796.00 1788.00,796.00
             1788.00,796.00 1787.00,795.00 1787.00,795.00
             1787.00,795.00 1788.00,795.00 1788.00,795.00 Z
           M 1790.00,796.00
           C 1790.00,796.00 1790.00,797.00 1790.00,797.00
             1790.00,797.00 1789.00,796.00 1789.00,796.00
             1789.00,796.00 1790.00,796.00 1790.00,796.00 Z
           M 1792.00,797.00
           C 1792.00,797.00 1792.00,798.00 1792.00,798.00
             1792.00,798.00 1791.00,797.00 1791.00,797.00
             1791.00,797.00 1792.00,797.00 1792.00,797.00 Z
           M 1794.00,798.00
           C 1794.00,798.00 1794.00,799.00 1794.00,799.00
             1794.00,799.00 1793.00,798.00 1793.00,798.00
             1793.00,798.00 1794.00,798.00 1794.00,798.00 Z
           M 1796.00,799.00
           C 1796.00,799.00 1796.00,800.00 1796.00,800.00
             1796.00,800.00 1795.00,799.00 1795.00,799.00
             1795.00,799.00 1796.00,799.00 1796.00,799.00 Z
           M 1798.00,800.00
           C 1798.00,800.00 1798.00,801.00 1798.00,801.00
             1798.00,801.00 1797.00,800.00 1797.00,800.00
             1797.00,800.00 1798.00,800.00 1798.00,800.00 Z
           M 1801.00,801.00
           C 1801.00,801.00 1801.00,802.00 1801.00,802.00
             1801.00,802.00 1800.00,801.00 1800.00,801.00
             1800.00,801.00 1801.00,801.00 1801.00,801.00 Z
           M 1803.00,802.00
           C 1803.00,802.00 1803.00,803.00 1803.00,803.00
             1803.00,803.00 1802.00,802.00 1802.00,802.00
             1802.00,802.00 1803.00,802.00 1803.00,802.00 Z
           M 1806.00,803.00
           C 1806.00,803.00 1806.00,804.00 1806.00,804.00
             1806.00,804.00 1805.00,803.00 1805.00,803.00
             1805.00,803.00 1806.00,803.00 1806.00,803.00 Z
           M 1809.00,804.00
           C 1809.00,804.00 1809.00,805.00 1809.00,805.00
             1809.00,805.00 1808.00,804.00 1808.00,804.00
             1808.00,804.00 1809.00,804.00 1809.00,804.00 Z
           M 1816.00,806.00
           C 1816.00,806.00 1816.00,807.00 1816.00,807.00
             1816.00,807.00 1815.00,806.00 1815.00,806.00
             1815.00,806.00 1816.00,806.00 1816.00,806.00 Z
           M 1839.00,809.00
           C 1839.00,809.00 1832.00,810.00 1832.00,810.00
             1832.00,810.00 1839.00,809.00 1839.00,809.00 Z" />
</svg>
