<?xml version="1.0" encoding="UTF-8" standalone="no"?>
<!DOCTYPE svg PUBLIC "-//W3C//DTD SVG 20010904//EN"
              "http://www.w3.org/TR/2001/REC-SVG-20010904/DTD/svg10.dtd">

<svg xmlns="http://www.w3.org/2000/svg"
     width="26.6667in" height="15in"
     viewBox="0 0 1920 1080">
  <path id="Selection"
        fill="none" stroke="black" stroke-width="1"
        d="M 239.00,1080.00
           C 239.00,1080.00 465.00,1080.00 465.00,1080.00
             465.00,1080.00 465.00,363.00 465.00,363.00
             464.95,332.88 452.60,302.22 430.91,281.17
             395.93,247.21 340.83,239.02 298.00,262.86
             288.15,268.34 276.95,276.50 269.58,285.00
             260.78,295.16 253.74,304.43 248.60,317.00
             242.66,331.55 239.02,347.22 239.00,363.00
             239.00,363.00 239.00,1080.00 239.00,1080.00 Z
           M 5.00,1080.00
           C 5.00,1080.00 231.00,1080.00 231.00,1080.00
             231.00,1080.00 231.00,395.00 231.00,395.00
             230.95,364.88 218.60,334.22 196.91,313.17
             161.93,279.21 106.83,271.02 64.00,294.86
             54.15,300.34 42.95,308.50 35.58,317.00
             26.78,327.16 19.74,336.43 14.60,349.00
             8.66,363.55 5.02,379.22 5.00,395.00
             5.00,395.00 5.00,1080.00 5.00,1080.00 Z
           M 1689.00,1080.00
           C 1689.00,1080.00 1915.00,1080.00 1915.00,1080.00
             1915.00,1080.00 1915.00,419.00 1915.00,419.00
             1914.95,388.88 1902.60,358.22 1880.91,337.17
             1845.93,303.21 1790.83,295.02 1748.00,318.86
             1738.15,324.34 1726.95,332.50 1719.58,341.00
             1710.78,351.16 1703.74,360.43 1698.60,373.00
             1692.66,387.55 1689.02,403.22 1689.00,419.00
             1689.00,419.00 1689.00,1080.00 1689.00,1080.00 Z
           M 473.00,1080.00
           C 473.00,1080.00 699.00,1080.00 699.00,1080.00
             699.00,1080.00 699.00,668.00 699.00,668.00
             699.00,668.00 699.00,462.00 699.00,462.00
             698.45,415.22 668.10,372.39 624.00,356.70
             614.85,353.44 605.61,351.86 596.00,350.84
             590.70,350.27 589.70,349.88 584.00,350.01
             523.13,351.47 473.72,400.98 473.00,462.00
             473.00,462.00 473.00,668.00 473.00,668.00
             473.00,668.00 473.00,1080.00 473.00,1080.00 Z
           M 1222.00,1080.00
           C 1222.00,1080.00 1448.00,1080.00 1448.00,1080.00
             1448.00,1080.00 1448.00,504.00 1448.00,504.00
             1447.90,442.09 1399.07,391.50 1337.00,390.01
             1330.65,389.86 1329.74,390.39 1324.00,390.93
             1265.62,396.33 1222.09,445.70 1222.00,504.00
             1222.00,504.00 1222.00,1080.00 1222.00,1080.00 Z
           M 1456.00,1080.00
           C 1456.00,1080.00 1682.00,1080.00 1682.00,1080.00
             1682.00,1080.00 1682.00,562.00 1682.00,562.00
             1681.90,500.09 1633.07,449.50 1571.00,448.01
             1564.65,447.86 1563.74,448.39 1558.00,448.93
             1499.62,454.33 1456.09,503.70 1456.00,562.00
             1456.00,562.00 1456.00,1080.00 1456.00,1080.00 Z" />
</svg>
