<?xml version="1.0" encoding="UTF-8" standalone="no"?>
<!DOCTYPE svg PUBLIC "-//W3C//DTD SVG 20010904//EN"
              "http://www.w3.org/TR/2001/REC-SVG-20010904/DTD/svg10.dtd">

<svg xmlns="http://www.w3.org/2000/svg"
     width="26.6667in" height="15in"
     viewBox="0 0 1920 1080">
  <path id="Selection"
        fill="none" stroke="black" stroke-width="1"
        d="M 0.00,1036.00
           C 0.00,1036.00 0.00,1080.00 0.00,1080.00
             0.00,1080.00 1920.00,1080.00 1920.00,1080.00
             1920.00,1080.00 1920.00,1004.00 1920.00,1004.00
             1893.70,1004.00 1875.48,1004.36 1850.00,1012.67
             1819.76,1022.53 1810.82,1032.16 1775.00,1038.08
             1775.00,1038.08 1758.00,1040.04 1758.00,1040.04
             1758.00,1040.04 1749.00,1040.04 1749.00,1040.04
             1749.00,1040.04 1740.00,1040.97 1740.00,1040.97
             1740.00,1040.97 1726.00,1040.00 1726.00,1040.00
             1712.35,1039.98 1695.10,1037.18 1682.00,1033.28
             1682.00,1033.28 1633.00,1014.05 1633.00,1014.05
             1617.17,1008.25 1606.59,1006.44 1590.00,1004.83
             1590.00,1004.83 1581.00,1004.00 1581.00,1004.00
             1558.33,1003.74 1535.80,1004.35 1514.00,1011.34
             1514.00,1011.34 1458.00,1033.43 1458.00,1033.43
             1458.00,1033.43 1441.00,1037.00 1441.00,1037.00
             1433.75,1038.48 1426.43,1039.91 1419.00,1040.00
             1419.00,1040.00 1402.00,1040.82 1402.00,1040.82
             1402.00,1040.82 1388.00,1040.00 1388.00,1040.00
             1370.62,1039.97 1353.58,1036.33 1337.00,1031.28
             1337.00,1031.28 1291.00,1012.69 1291.00,1012.69
             1275.52,1007.30 1265.95,1006.38 1250.00,1004.83
             1250.00,1004.83 1241.00,1004.00 1241.00,1004.00
             1224.09,1003.81 1201.28,1004.29 1185.00,1008.58
             1185.00,1008.58 1116.00,1034.12 1116.00,1034.12
             1089.15,1041.17 1071.10,1040.31 1044.00,1040.00
             1037.53,1039.92 1030.34,1038.72 1024.00,1037.45
             1015.23,1035.69 1006.48,1034.08 998.00,1031.14
             998.00,1031.14 953.00,1012.70 953.00,1012.70
             938.68,1007.60 918.19,1004.18 903.00,1004.00
             879.43,1003.73 858.73,1004.46 836.00,1011.75
             836.00,1011.75 814.00,1020.58 814.00,1020.58
             795.98,1028.41 783.31,1033.07 764.00,1037.00
             756.75,1038.48 749.43,1039.91 742.00,1040.04
             742.00,1040.04 731.00,1040.04 731.00,1040.04
             731.00,1040.04 724.00,1040.82 724.00,1040.82
             724.00,1040.82 712.00,1040.00 712.00,1040.00
             699.30,1039.98 682.24,1037.79 670.00,1034.41
             670.00,1034.41 613.00,1012.08 613.00,1012.08
             600.37,1007.75 577.37,1004.16 564.00,1004.00
             541.06,1003.74 517.92,1004.92 496.00,1012.20
             466.94,1021.86 460.53,1030.14 425.00,1037.20
             418.65,1038.46 410.43,1039.92 404.00,1040.00
             404.00,1040.00 387.00,1040.68 387.00,1040.68
             387.00,1040.68 374.00,1040.00 374.00,1040.00
             359.35,1039.98 345.17,1037.85 331.00,1034.12
             331.00,1034.12 276.00,1012.74 276.00,1012.74
             252.02,1004.98 233.98,1003.71 209.00,1004.00
             209.00,1004.00 199.00,1005.04 199.00,1005.04
             199.00,1005.04 190.00,1005.04 190.00,1005.04
             175.25,1006.58 160.80,1010.78 147.00,1016.06
             147.00,1016.06 102.00,1033.97 102.00,1033.97
             90.03,1037.48 72.49,1039.98 60.00,1040.00
             60.00,1040.00 46.00,1040.82 46.00,1040.82
             30.61,1039.72 15.11,1039.72 0.00,1036.00 Z" />
</svg>
