<?xml version="1.0" encoding="UTF-8" standalone="no"?>
<!DOCTYPE svg PUBLIC "-//W3C//DTD SVG 20010904//EN"
              "http://www.w3.org/TR/2001/REC-SVG-20010904/DTD/svg10.dtd">

<svg xmlns="http://www.w3.org/2000/svg"
     width="247.31mm" height="61.3865mm"
     viewBox="0 0 1402 348">
  <path id="Selection #2"
        fill="none" stroke="black" stroke-width="1"
        d="M 353.00,144.00
           C 353.00,144.00 373.00,144.00 373.00,144.00
             373.00,144.00 377.00,128.00 377.00,128.00
             377.00,128.00 401.00,128.00 401.00,128.00
             413.34,128.23 407.38,138.68 413.51,142.98
             415.88,144.65 429.37,144.00 433.00,144.00
             433.00,144.00 412.95,90.00 412.95,90.00
             412.95,90.00 404.00,65.00 404.00,65.00
             404.00,65.00 390.00,65.00 390.00,65.00
             390.00,65.00 382.51,66.02 382.51,66.02
             382.51,66.02 375.05,83.00 375.05,83.00
             375.05,83.00 361.19,120.00 361.19,120.00
             361.19,120.00 353.00,144.00 353.00,144.00 Z
           M 442.00,65.00
           C 442.00,65.00 442.00,144.00 442.00,144.00
             442.00,144.00 490.00,144.00 490.00,144.00
             490.00,144.00 490.00,129.00 490.00,129.00
             490.00,129.00 461.00,129.00 461.00,129.00
             461.00,129.00 461.00,65.00 461.00,65.00
             461.00,65.00 442.00,65.00 442.00,65.00 Z
           M 501.00,65.00
           C 501.00,65.00 501.00,144.00 501.00,144.00
             501.00,144.00 550.00,144.00 550.00,144.00
             550.00,144.00 550.00,129.00 550.00,129.00
             550.00,129.00 520.00,129.00 520.00,129.00
             520.00,129.00 520.00,111.00 520.00,111.00
             520.00,111.00 549.00,111.00 549.00,111.00
             549.00,111.00 549.00,96.00 549.00,96.00
             549.00,96.00 520.00,96.00 520.00,96.00
             520.00,96.00 520.00,80.00 520.00,80.00
             520.00,80.00 550.00,80.00 550.00,80.00
             550.00,80.00 550.00,65.00 550.00,65.00
             550.00,65.00 501.00,65.00 501.00,65.00 Z
           M 560.00,65.00
           C 560.00,65.00 578.00,93.00 578.00,93.00
             578.00,93.00 584.49,104.58 584.49,104.58
             584.49,104.58 577.67,116.00 577.67,116.00
             577.67,116.00 559.00,144.00 559.00,144.00
             559.00,144.00 578.90,143.40 578.90,143.40
             578.90,143.40 584.68,137.00 584.68,137.00
             584.68,137.00 595.00,119.00 595.00,119.00
             595.00,119.00 605.81,135.00 605.81,135.00
             605.81,135.00 612.18,142.98 612.18,142.98
             612.18,142.98 632.00,144.00 632.00,144.00
             629.65,137.85 619.13,122.99 614.86,117.00
             612.83,114.16 607.38,107.37 607.54,104.00
             607.67,101.17 612.60,94.60 614.33,92.00
             614.33,92.00 632.00,65.00 632.00,65.00
             632.00,65.00 612.32,65.57 612.32,65.57
             612.32,65.57 606.69,72.00 606.69,72.00
             606.69,72.00 597.00,89.00 597.00,89.00
             597.00,89.00 595.00,89.00 595.00,89.00
             595.00,89.00 585.05,72.00 585.05,72.00
             585.05,72.00 579.67,65.57 579.67,65.57
             579.67,65.57 560.00,65.00 560.00,65.00 Z
           M 393.00,80.00
           C 393.00,80.00 403.00,113.00 403.00,113.00
             403.00,113.00 383.00,113.00 383.00,113.00
             383.48,107.72 390.39,84.39 393.00,80.00 Z
           M 544.00,272.00
           C 544.00,272.00 540.00,287.00 540.00,287.00
             556.75,292.58 584.34,297.51 593.47,277.00
             594.52,274.65 595.60,270.56 595.81,268.00
             596.82,255.87 587.08,247.84 577.00,243.42
             572.99,241.67 565.18,238.93 562.52,235.67
             559.57,232.05 561.19,228.32 565.04,226.16
             568.87,224.32 573.98,225.14 578.00,226.16
             578.00,226.16 590.00,229.00 590.00,229.00
             590.00,229.00 593.00,215.00 593.00,215.00
             575.24,207.95 542.13,204.91 541.04,232.00
             540.48,245.84 547.17,251.41 559.00,256.82
             563.85,259.04 571.45,261.43 574.39,266.04
             578.57,272.61 570.46,276.52 565.00,276.90
             557.54,277.43 550.84,274.37 544.00,272.00 Z
           M 607.00,272.00
           C 607.00,272.00 603.00,287.00 603.00,287.00
             619.75,292.58 647.34,297.51 656.47,277.00
             657.52,274.65 658.60,270.56 658.81,268.00
             659.82,255.87 650.08,247.84 640.00,243.42
             635.99,241.67 628.18,238.93 625.52,235.67
             622.57,232.05 624.19,228.32 628.04,226.16
             631.87,224.32 636.98,225.14 641.00,226.16
             641.00,226.16 653.00,229.00 653.00,229.00
             653.00,229.00 656.00,215.00 656.00,215.00
             638.24,207.95 605.13,204.91 604.04,232.00
             603.48,245.84 610.17,251.41 622.00,256.82
             626.85,259.04 634.45,261.43 637.39,266.04
             641.57,272.61 633.46,276.52 628.00,276.90
             620.54,277.43 613.84,274.37 607.00,272.00 Z
           M 362.00,212.00
           C 362.00,212.00 359.17,246.00 359.17,246.00
             359.17,246.00 357.83,268.00 357.83,268.00
             357.83,268.00 356.00,291.00 356.00,291.00
             356.00,291.00 375.00,291.00 375.00,291.00
             375.00,291.00 376.00,278.00 376.00,278.00
             376.00,278.00 377.00,248.00 377.00,248.00
             377.00,248.00 388.25,269.00 388.25,269.00
             388.25,269.00 393.49,277.98 393.49,277.98
             393.49,277.98 401.00,279.00 401.00,279.00
             401.00,279.00 410.79,277.98 410.79,277.98
             410.79,277.98 416.25,270.00 416.25,270.00
             416.25,270.00 426.00,248.00 426.00,248.00
             428.57,254.18 427.97,256.56 428.00,263.00
             428.00,263.00 430.00,291.00 430.00,291.00
             430.00,291.00 449.00,291.00 449.00,291.00
             449.00,291.00 444.91,237.00 444.91,237.00
             444.91,237.00 443.00,212.00 443.00,212.00
             443.00,212.00 425.63,212.99 425.63,212.99
             425.63,212.99 418.76,225.00 418.76,225.00
             418.76,225.00 403.00,260.00 403.00,260.00
             403.00,260.00 392.69,239.00 392.69,239.00
             392.69,239.00 385.86,225.00 385.86,225.00
             382.82,218.17 382.38,212.15 374.00,212.00
             374.00,212.00 362.00,212.00 362.00,212.00 Z
           M 461.00,212.00
           C 461.00,212.00 461.58,263.00 461.58,263.00
             462.62,270.82 462.43,275.47 468.21,281.97
             480.35,295.58 509.69,295.56 521.81,281.97
             527.64,275.46 528.96,266.46 529.00,258.00
             529.00,258.00 529.00,212.00 529.00,212.00
             529.00,212.00 509.00,212.00 509.00,212.00
             509.00,212.00 509.00,261.00 509.00,261.00
             508.79,278.21 491.76,280.63 484.42,271.89
             481.40,268.31 481.06,264.46 481.00,260.00
             481.00,260.00 481.00,212.00 481.00,212.00
             481.00,212.00 461.00,212.00 461.00,212.00 Z
           M 670.00,212.00
           C 670.00,212.00 670.00,291.00 670.00,291.00
             670.00,291.00 719.00,291.00 719.00,291.00
             719.00,291.00 719.00,276.00 719.00,276.00
             719.00,276.00 689.00,276.00 689.00,276.00
             689.00,276.00 689.00,258.00 689.00,258.00
             689.00,258.00 718.00,258.00 718.00,258.00
             718.00,258.00 718.00,243.00 718.00,243.00
             718.00,243.00 689.00,243.00 689.00,243.00
             689.00,243.00 689.00,227.00 689.00,227.00
             689.00,227.00 719.00,227.00 719.00,227.00
             719.00,227.00 719.00,212.00 719.00,212.00
             719.00,212.00 670.00,212.00 670.00,212.00 Z
           M 733.00,212.00
           C 733.00,212.00 733.00,291.00 733.00,291.00
             733.00,291.00 781.00,291.00 781.00,291.00
             781.00,291.00 781.00,276.00 781.00,276.00
             781.00,276.00 752.00,276.00 752.00,276.00
             752.00,276.00 752.00,212.00 752.00,212.00
             752.00,212.00 733.00,212.00 733.00,212.00 Z
           M 782.00,212.00
           C 782.00,212.00 803.00,291.00 803.00,291.00
             803.00,291.00 817.00,291.00 817.00,291.00
             824.91,290.85 823.84,289.14 827.29,277.00
             827.29,277.00 833.42,254.00 833.42,254.00
             833.42,254.00 839.00,233.00 839.00,233.00
             839.00,233.00 846.88,260.00 846.88,260.00
             846.88,260.00 855.00,291.00 855.00,291.00
             855.00,291.00 867.00,291.00 867.00,291.00
             869.13,291.00 872.73,291.23 874.49,289.98
             877.17,288.08 879.43,276.56 880.42,273.00
             880.42,273.00 897.00,212.00 897.00,212.00
             897.00,212.00 877.00,212.00 877.00,212.00
             877.00,212.00 865.00,265.00 865.00,265.00
             865.00,265.00 854.12,226.00 854.12,226.00
             850.80,213.44 851.61,212.06 843.00,212.00
             843.00,212.00 828.00,212.00 828.00,212.00
             828.00,212.00 814.00,265.00 814.00,265.00
             814.00,265.00 802.00,212.00 802.00,212.00
             802.00,212.00 782.00,212.00 782.00,212.00 Z
           M 907.00,212.00
           C 907.00,212.00 907.00,291.00 907.00,291.00
             907.00,291.00 926.00,291.00 926.00,291.00
             926.00,291.00 926.00,258.00 926.00,258.00
             926.00,258.00 955.00,258.00 955.00,258.00
             955.00,258.00 955.00,291.00 955.00,291.00
             955.00,291.00 975.00,291.00 975.00,291.00
             975.00,291.00 975.00,212.00 975.00,212.00
             975.00,212.00 955.00,212.00 955.00,212.00
             955.00,212.00 955.00,243.00 955.00,243.00
             955.00,243.00 926.00,243.00 926.00,243.00
             926.00,243.00 926.00,212.00 926.00,212.00
             926.00,212.00 907.00,212.00 907.00,212.00 Z
           M 991.00,212.00
           C 991.00,212.00 991.00,291.00 991.00,291.00
             991.00,291.00 1011.00,291.00 1011.00,291.00
             1011.00,291.00 1011.00,212.00 1011.00,212.00
             1011.00,212.00 991.00,212.00 991.00,212.00 Z
           M 1021.00,212.00
           C 1021.00,212.00 1021.00,227.00 1021.00,227.00
             1021.00,227.00 1042.00,227.00 1042.00,227.00
             1042.00,227.00 1042.00,291.00 1042.00,291.00
             1042.00,291.00 1061.00,291.00 1061.00,291.00
             1061.00,291.00 1061.00,227.00 1061.00,227.00
             1061.00,227.00 1083.00,227.00 1083.00,227.00
             1083.00,227.00 1083.00,212.00 1083.00,212.00
             1083.00,212.00 1021.00,212.00 1021.00,212.00 Z
           M 1092.00,212.00
           C 1092.00,212.00 1092.00,291.00 1092.00,291.00
             1092.00,291.00 1141.00,291.00 1141.00,291.00
             1141.00,291.00 1141.00,276.00 1141.00,276.00
             1141.00,276.00 1111.00,276.00 1111.00,276.00
             1111.00,276.00 1111.00,258.00 1111.00,258.00
             1111.00,258.00 1140.00,258.00 1140.00,258.00
             1140.00,258.00 1140.00,243.00 1140.00,243.00
             1140.00,243.00 1111.00,243.00 1111.00,243.00
             1111.00,243.00 1111.00,227.00 1111.00,227.00
             1111.00,227.00 1141.00,227.00 1141.00,227.00
             1141.00,227.00 1141.00,212.00 1141.00,212.00
             1141.00,212.00 1092.00,212.00 1092.00,212.00 Z" />
</svg>
