<?xml version="1.0" encoding="UTF-8" standalone="no"?>
<!DOCTYPE svg PUBLIC "-//W3C//DTD SVG 20010904//EN"
              "http://www.w3.org/TR/2001/REC-SVG-20010904/DTD/svg10.dtd">

<svg xmlns="http://www.w3.org/2000/svg"
     width="247.31mm" height="61.3865mm"
     viewBox="0 0 1402 348">
  <path id="Selection"
        fill="none" stroke="black" stroke-width="1"
        d="M 202.00,34.42
           C 202.00,34.42 117.00,44.58 117.00,44.58
             117.00,44.58 94.00,47.42 94.00,47.42
             91.46,47.78 86.30,48.29 84.21,49.43
             81.54,50.89 79.91,54.45 78.32,57.00
             78.32,57.00 67.00,75.00 67.00,75.00
             67.00,75.00 34.68,127.00 34.68,127.00
             31.84,131.50 19.02,151.51 18.06,155.00
             16.84,159.42 19.83,164.84 21.31,169.00
             21.31,169.00 31.95,200.00 31.95,200.00
             31.95,200.00 48.67,248.00 48.67,248.00
             50.12,252.29 55.33,267.97 57.65,270.62
             60.10,273.43 71.13,279.18 75.00,281.42
             75.00,281.42 110.00,301.85 110.00,301.85
             110.00,301.85 139.00,318.85 139.00,318.85
             143.72,321.56 148.27,325.42 154.00,324.66
             154.00,324.66 181.00,317.87 181.00,317.87
             181.00,317.87 242.00,301.88 242.00,301.88
             242.00,301.88 268.00,295.37 268.00,295.37
             271.48,294.50 279.21,292.92 281.91,291.15
             285.17,289.02 297.18,272.26 300.37,268.00
             300.37,268.00 329.00,230.00 329.00,230.00
             331.94,226.26 343.62,211.39 344.83,208.00
             346.40,203.59 342.07,188.35 341.00,183.00
             341.00,183.00 327.65,121.00 327.65,121.00
             327.65,121.00 324.00,104.00 324.00,104.00
             323.32,100.70 323.04,97.12 320.57,94.61
             318.46,92.46 304.72,85.28 301.00,83.15
             301.00,83.15 258.00,59.00 258.00,59.00
             258.00,59.00 232.00,44.58 232.00,44.58
             220.90,38.21 215.26,32.81 202.00,34.42 Z
           M 209.00,42.00
           C 209.00,42.00 199.00,122.00 199.00,122.00
             199.00,122.00 211.00,43.00 211.00,43.00
             216.67,46.72 222.19,58.79 225.72,65.00
             225.72,65.00 238.57,87.00 238.57,87.00
             240.00,89.49 243.48,95.30 243.45,98.00
             243.41,101.82 233.66,114.27 231.00,118.00
             231.00,118.00 195.21,169.00 195.21,169.00
             193.28,164.64 194.75,157.74 195.21,153.00
             195.21,153.00 199.00,123.00 199.00,123.00
             199.00,123.00 192.00,166.00 192.00,166.00
             190.07,161.81 187.81,147.33 186.92,142.00
             186.92,142.00 179.75,101.00 179.75,101.00
             179.02,96.61 175.59,80.22 176.64,77.00
             177.52,74.26 182.33,69.41 184.42,67.00
             189.18,61.52 203.54,44.70 209.00,42.00 Z
           M 204.00,43.00
           C 200.08,49.72 189.98,59.59 184.42,66.00
             181.92,68.89 177.79,74.21 174.00,75.11
             171.10,75.80 155.99,71.83 152.00,71.00
             152.00,71.00 92.00,57.00 92.00,57.00
             92.00,57.00 128.00,51.72 128.00,51.72
             128.00,51.72 204.00,43.00 204.00,43.00 Z
           M 218.00,47.00
           C 218.00,47.00 246.00,62.14 246.00,62.14
             246.00,62.14 307.00,96.00 307.00,96.00
             302.78,97.67 296.60,96.99 292.00,97.00
             292.00,97.00 276.00,98.00 276.00,98.00
             276.00,98.00 254.00,98.00 254.00,98.00
             251.69,98.00 248.37,98.22 246.38,96.98
             244.29,95.67 241.17,90.26 239.87,88.00
             239.87,88.00 229.15,69.00 229.15,69.00
             226.49,64.33 217.71,51.54 218.00,47.00 Z
           M 173.00,77.00
           C 170.20,82.93 154.46,99.07 149.07,105.00
             147.06,107.21 143.09,112.80 140.00,112.80
             136.51,112.80 128.70,102.84 126.16,100.00
             126.16,100.00 103.93,75.00 103.93,75.00
             99.55,70.18 92.97,63.53 90.00,58.00
             90.00,58.00 117.00,64.12 117.00,64.12
             117.00,64.12 143.00,69.88 143.00,69.88
             143.00,69.88 173.00,77.00 173.00,77.00 Z
           M 89.00,59.00
           C 89.00,59.00 123.28,98.00 123.28,98.00
             123.28,98.00 138.00,116.00 138.00,116.00
             138.00,116.00 69.00,139.86 69.00,139.86
             69.00,139.86 29.00,153.00 29.00,153.00
             29.00,153.00 46.58,124.00 46.58,124.00
             46.58,124.00 87.00,59.00 87.00,59.00
             87.00,59.00 89.00,59.00 89.00,59.00 Z
           M 373.00,160.00
           C 376.56,160.00 386.57,160.93 388.93,158.43
             392.18,154.97 394.72,141.59 399.22,139.60
             400.72,138.94 403.35,139.01 405.00,139.00
             405.00,139.00 435.00,139.00 435.00,139.00
             437.22,139.00 440.70,138.78 442.59,140.02
             446.16,142.38 449.21,155.60 451.99,158.43
             454.49,160.96 465.26,160.00 469.00,160.00
             469.00,160.00 438.58,90.00 438.58,90.00
             438.58,90.00 428.36,68.99 428.36,68.99
             428.36,68.99 419.00,68.00 419.00,68.00
             419.00,68.00 413.41,69.02 413.41,69.02
             413.41,69.02 403.86,88.00 403.86,88.00
             403.86,88.00 383.70,134.00 383.70,134.00
             383.70,134.00 373.00,160.00 373.00,160.00 Z
           M 484.00,68.00
           C 484.00,68.00 484.00,160.00 484.00,160.00
             484.00,160.00 539.00,160.00 539.00,160.00
             539.00,160.00 539.00,146.00 539.00,146.00
             539.00,146.00 499.00,146.00 499.00,146.00
             499.00,146.00 499.00,68.00 499.00,68.00
             499.00,68.00 484.00,68.00 484.00,68.00 Z
           M 556.00,68.00
           C 556.00,68.00 556.00,160.00 556.00,160.00
             556.00,160.00 623.00,160.00 623.00,160.00
             623.00,160.00 623.00,146.00 623.00,146.00
             623.00,146.00 572.00,146.00 572.00,146.00
             572.00,146.00 572.00,121.00 572.00,121.00
             572.00,121.00 617.00,121.00 617.00,121.00
             617.00,121.00 617.00,107.00 617.00,107.00
             617.00,107.00 572.00,107.00 572.00,107.00
             572.00,107.00 572.00,82.00 572.00,82.00
             572.00,82.00 622.00,82.00 622.00,82.00
             622.00,82.00 622.00,68.00 622.00,68.00
             622.00,68.00 556.00,68.00 556.00,68.00 Z
           M 638.00,68.00
           C 638.00,68.00 659.02,100.00 659.02,100.00
             659.02,100.00 666.58,113.00 666.58,113.00
             666.58,113.00 658.00,127.00 658.00,127.00
             658.00,127.00 635.00,160.00 635.00,160.00
             635.00,160.00 652.91,158.98 652.91,158.98
             652.91,158.98 661.29,149.00 661.29,149.00
             661.29,149.00 677.00,126.00 677.00,126.00
             677.00,126.00 679.00,126.00 679.00,126.00
             681.46,132.32 691.31,144.82 695.71,151.00
             699.87,156.84 700.51,159.86 708.00,160.00
             708.00,160.00 721.00,160.00 721.00,160.00
             721.00,160.00 697.58,126.00 697.58,126.00
             697.58,126.00 689.28,112.00 689.28,112.00
             689.28,112.00 697.14,99.00 697.14,99.00
             697.14,99.00 718.00,68.00 718.00,68.00
             718.00,68.00 701.18,68.60 701.18,68.60
             701.18,68.60 693.00,78.00 693.00,78.00
             693.00,78.00 677.00,100.00 677.00,100.00
             677.00,100.00 662.58,78.00 662.58,78.00
             662.58,78.00 654.91,69.02 654.91,69.02
             654.91,69.02 638.00,68.00 638.00,68.00 Z
           M 175.00,79.00
           C 175.00,79.00 181.58,117.00 181.58,117.00
             181.58,117.00 185.25,140.00 185.25,140.00
             185.25,140.00 190.00,170.00 190.00,170.00
             183.02,164.96 161.67,139.26 153.98,131.00
             151.58,128.43 142.23,118.98 142.19,116.00
             142.16,113.11 148.02,107.12 150.04,105.00
             157.42,97.24 166.92,84.79 175.00,79.00 Z
           M 421.00,85.00
           C 421.00,85.00 437.00,125.00 437.00,125.00
             437.00,125.00 404.00,125.00 404.00,125.00
             404.00,125.00 413.72,100.00 413.72,100.00
             413.72,100.00 421.00,85.00 421.00,85.00 Z
           M 313.00,100.00
           C 307.99,104.57 299.93,108.42 294.00,112.06
             286.84,116.45 271.20,126.90 264.00,129.00
             259.52,122.14 249.40,106.45 248.00,99.00
             248.00,99.00 290.00,99.00 290.00,99.00
             290.00,99.00 313.00,100.00 313.00,100.00 Z
           M 246.00,100.00
           C 246.00,100.00 263.00,131.00 263.00,131.00
             263.00,131.00 218.00,157.80 218.00,157.80
             218.00,157.80 196.00,170.00 196.00,170.00
             196.00,170.00 227.14,125.00 227.14,125.00
             232.23,117.89 239.72,105.23 246.00,100.00 Z
           M 315.00,102.00
           C 315.00,102.00 322.00,134.00 322.00,134.00
             322.65,137.10 324.98,145.30 324.23,147.96
             323.19,151.69 314.30,157.39 311.00,159.87
             311.00,159.87 271.00,189.00 271.00,189.00
             271.00,189.00 266.72,149.00 266.72,149.00
             266.35,145.94 264.77,134.33 265.61,132.10
             266.94,128.60 274.70,124.61 278.00,122.72
             286.17,118.04 307.60,103.77 315.00,102.00 Z
           M 189.00,173.00
           C 189.00,173.00 154.00,169.28 154.00,169.28
             154.00,169.28 137.00,167.84 137.00,167.84
             137.00,167.84 107.00,165.00 107.00,165.00
             109.12,158.33 124.64,136.31 129.51,129.00
             131.18,126.50 136.04,118.20 139.09,118.20
             142.62,118.20 149.51,127.27 152.00,130.00
             152.00,130.00 175.17,156.00 175.17,156.00
             179.95,161.29 185.95,166.50 189.00,173.00 Z
           M 134.00,119.00
           C 131.40,127.17 118.97,142.70 113.81,151.00
             111.66,154.46 107.64,161.92 103.91,163.40
             100.59,164.73 86.46,162.44 82.00,162.08
             82.00,162.08 46.00,158.83 46.00,158.83
             46.00,158.83 27.00,157.00 27.00,157.00
             30.80,153.38 35.11,152.63 40.00,151.00
             40.00,151.00 59.00,144.33 59.00,144.33
             59.00,144.33 102.00,129.58 102.00,129.58
             108.82,127.02 127.84,119.95 134.00,119.00 Z
           M 264.00,133.00
           C 264.00,133.00 269.00,190.00 269.00,190.00
             269.00,190.00 238.00,183.42 238.00,183.42
             238.00,183.42 195.00,174.00 195.00,174.00
             198.77,169.72 204.21,167.34 209.00,164.32
             209.00,164.32 242.00,144.40 242.00,144.40
             248.33,140.60 256.94,134.34 264.00,133.00 Z
           M 325.00,151.00
           C 325.00,151.00 330.42,174.00 330.42,174.00
             330.42,174.00 337.00,205.00 337.00,205.00
             337.00,205.00 305.00,198.21 305.00,198.21
             305.00,198.21 273.00,191.00 273.00,191.00
             273.00,191.00 273.00,189.00 273.00,189.00
             273.00,189.00 325.00,151.00 325.00,151.00 Z
           M 110.00,229.00
           C 104.39,226.35 96.15,218.23 91.00,213.92
             91.00,213.92 52.00,180.42 52.00,180.42
             46.42,175.67 31.00,163.51 28.00,158.00
             28.00,158.00 46.00,159.83 46.00,159.83
             46.00,159.83 84.00,163.72 84.00,163.72
             84.00,163.72 102.40,166.74 102.40,166.74
             102.40,166.74 105.16,183.00 105.16,183.00
             105.16,183.00 110.00,229.00 110.00,229.00 Z
           M 29.00,162.00
           C 29.00,162.00 45.00,175.41 45.00,175.41
             45.00,175.41 88.00,212.27 88.00,212.27
             88.00,212.27 109.00,230.00 109.00,230.00
             106.24,235.55 101.87,237.31 97.00,240.88
             90.16,245.91 69.50,261.51 63.00,264.00
             63.00,264.00 37.95,192.00 37.95,192.00
             37.95,192.00 31.58,173.00 31.58,173.00
             31.58,173.00 29.00,162.00 29.00,162.00 Z
           M 189.00,175.00
           C 189.00,175.00 152.00,201.72 152.00,201.72
             152.00,201.72 112.00,230.00 112.00,230.00
             112.00,230.00 108.83,205.00 108.83,205.00
             108.83,205.00 105.00,166.00 105.00,166.00
             105.00,166.00 142.00,169.91 142.00,169.91
             142.00,169.91 189.00,175.00 189.00,175.00 Z
           M 196.00,175.00
           C 196.00,175.00 228.00,182.42 228.00,182.42
             228.00,182.42 267.00,191.00 267.00,191.00
             263.81,197.44 247.31,209.50 241.00,214.75
             238.76,216.62 234.01,221.27 231.04,220.97
             227.97,220.66 223.71,214.40 221.80,212.00
             221.80,212.00 201.71,186.00 201.71,186.00
             199.33,182.72 195.57,179.25 196.00,175.00 Z
           M 193.00,176.00
           C 193.00,176.00 218.42,209.00 218.42,209.00
             218.42,209.00 227.97,223.00 227.97,223.00
             227.97,223.00 223.80,231.00 223.80,231.00
             223.80,231.00 210.92,247.00 210.92,247.00
             210.92,247.00 173.61,293.00 173.61,293.00
             173.61,293.00 154.00,316.00 154.00,316.00
             154.00,316.00 160.12,292.00 160.12,292.00
             160.12,292.00 176.12,234.00 176.12,234.00
             176.12,234.00 187.66,192.00 187.66,192.00
             187.66,192.00 193.00,176.00 193.00,176.00 Z
           M 190.00,177.00
           C 190.00,177.00 184.88,197.00 184.88,197.00
             184.88,197.00 171.42,246.00 171.42,246.00
             171.42,246.00 152.00,316.00 152.00,316.00
             152.00,316.00 150.00,316.00 150.00,316.00
             150.00,316.00 123.58,258.00 123.58,258.00
             123.58,258.00 112.00,231.00 112.00,231.00
             112.00,231.00 170.00,190.14 170.00,190.14
             170.00,190.14 190.00,177.00 190.00,177.00 Z
           M 335.00,206.00
           C 332.90,212.21 322.11,225.21 317.65,231.00
             317.65,231.00 292.12,265.00 292.12,265.00
             292.12,265.00 281.00,280.00 281.00,280.00
             278.18,275.15 278.35,264.89 277.58,259.00
             277.58,259.00 272.92,213.00 272.92,213.00
             272.41,206.65 270.35,197.98 272.00,192.00
             272.00,192.00 335.00,206.00 335.00,206.00 Z
           M 270.00,193.00
           C 270.00,193.00 271.83,213.00 271.83,213.00
             271.83,213.00 274.17,240.00 274.17,240.00
             274.17,240.00 278.00,283.00 278.00,283.00
             272.68,279.01 269.84,274.17 265.79,269.00
             265.79,269.00 245.87,243.00 245.87,243.00
             241.35,237.02 234.31,229.97 232.00,223.00
             232.00,223.00 270.00,193.00 270.00,193.00 Z
           M 384.00,210.00
           C 384.00,210.00 384.00,302.00 384.00,302.00
             384.00,302.00 399.00,302.00 399.00,302.00
             399.00,302.00 399.00,235.00 399.00,235.00
             399.00,235.00 420.69,278.00 420.69,278.00
             424.03,285.27 424.62,292.72 433.99,291.94
             440.59,291.39 442.69,283.11 445.25,278.00
             450.08,268.33 463.49,242.79 466.00,234.00
             466.00,234.00 467.00,258.00 467.00,258.00
             467.00,258.00 467.00,302.00 467.00,302.00
             467.00,302.00 481.00,302.00 481.00,302.00
             481.00,302.00 481.00,210.00 481.00,210.00
             481.00,210.00 469.00,210.00 469.00,210.00
             460.86,210.15 461.71,213.08 456.25,224.00
             456.25,224.00 434.00,270.00 434.00,270.00
             434.00,270.00 432.00,270.00 432.00,270.00
             432.00,270.00 409.75,224.00 409.75,224.00
             402.76,210.02 404.18,210.02 395.00,210.00
             395.00,210.00 384.00,210.00 384.00,210.00 Z
           M 586.00,210.00
           C 586.00,210.00 571.00,210.00 571.00,210.00
             571.00,210.00 571.00,253.00 571.00,253.00
             571.00,261.70 571.79,270.27 566.87,278.00
             558.88,290.54 539.57,292.18 529.18,281.82
             523.01,275.66 522.01,269.26 522.00,261.00
             522.00,261.00 522.00,210.00 522.00,210.00
             519.10,210.00 509.58,209.46 507.60,211.02
             505.31,212.83 506.00,220.17 506.00,223.00
             506.00,223.00 506.00,258.00 506.00,258.00
             506.17,271.92 508.66,287.07 521.04,295.45
             527.82,300.05 539.83,303.29 548.00,302.68
             569.31,301.07 585.72,290.13 586.00,267.00
             586.00,267.00 586.00,210.00 586.00,210.00 Z
           M 609.00,275.00
           C 607.44,277.74 603.08,284.80 603.81,287.83
             605.04,292.90 619.16,298.90 624.00,300.25
             644.01,305.87 677.63,300.76 674.21,273.00
             673.60,268.08 672.21,263.82 668.79,260.09
             658.07,248.44 635.04,249.17 627.51,238.96
             620.67,229.68 632.69,223.48 642.00,224.18
             652.10,224.95 658.45,229.56 667.00,232.00
             667.00,232.00 673.00,218.00 673.00,218.00
             673.00,218.00 660.00,212.52 660.00,212.52
             650.64,209.46 635.42,208.84 626.00,211.77
             612.08,216.11 603.38,231.18 609.92,245.00
             615.49,256.77 628.82,259.31 640.00,263.00
             645.45,264.80 650.89,266.26 654.57,271.04
             661.18,279.62 652.02,288.67 639.00,287.91
             624.35,287.06 620.21,280.91 609.00,275.00 Z
           M 693.00,275.00
           C 693.00,275.00 687.00,289.00 687.00,289.00
             701.17,297.87 708.31,302.93 726.00,302.26
             739.84,301.73 754.22,297.12 757.96,282.00
             759.22,276.91 758.96,271.95 757.16,267.00
             750.53,248.69 722.42,250.24 713.22,240.79
             703.70,231.01 716.40,223.46 726.00,224.18
             737.81,225.07 743.52,230.41 752.00,232.00
             752.00,232.00 757.00,218.00 757.00,218.00
             751.91,215.81 747.38,213.45 742.00,211.91
             723.49,206.61 693.59,209.52 692.09,234.00
             691.92,236.90 692.21,239.22 693.04,242.00
             697.01,255.30 710.20,258.72 722.00,262.28
             728.40,264.21 735.44,266.06 739.43,272.02
             743.26,277.75 739.61,283.48 734.00,286.03
             726.57,289.41 717.24,287.76 710.00,284.66
             710.00,284.66 693.00,275.00 693.00,275.00 Z
           M 780.00,210.00
           C 780.00,210.00 780.00,302.00 780.00,302.00
             780.00,302.00 847.00,302.00 847.00,302.00
             847.00,302.00 847.00,288.00 847.00,288.00
             847.00,288.00 795.00,288.00 795.00,288.00
             795.00,288.00 795.00,263.00 795.00,263.00
             795.00,263.00 840.00,263.00 840.00,263.00
             840.00,263.00 840.00,249.00 840.00,249.00
             840.00,249.00 795.00,249.00 795.00,249.00
             795.00,249.00 795.00,224.00 795.00,224.00
             795.00,224.00 845.00,224.00 845.00,224.00
             845.00,224.00 845.00,210.00 845.00,210.00
             845.00,210.00 780.00,210.00 780.00,210.00 Z
           M 868.00,210.00
           C 868.00,210.00 868.00,302.00 868.00,302.00
             868.00,302.00 923.00,302.00 923.00,302.00
             923.00,302.00 923.00,288.00 923.00,288.00
             923.00,288.00 884.00,288.00 884.00,288.00
             884.00,288.00 884.00,219.00 884.00,219.00
             884.00,217.01 884.23,213.19 882.98,211.60
             881.04,209.15 871.18,210.00 868.00,210.00 Z
           M 929.00,210.00
           C 929.00,210.00 947.67,267.00 947.67,267.00
             947.67,267.00 959.00,302.00 959.00,302.00
             959.00,302.00 976.00,302.00 976.00,302.00
             976.00,302.00 997.00,231.00 997.00,231.00
             997.00,231.00 1006.72,261.00 1006.72,261.00
             1006.72,261.00 1019.00,302.00 1019.00,302.00
             1019.00,302.00 1027.00,302.00 1027.00,302.00
             1029.14,302.00 1032.71,302.23 1034.49,300.98
             1037.13,299.13 1041.07,284.78 1042.33,281.00
             1042.33,281.00 1058.33,233.00 1058.33,233.00
             1058.33,233.00 1066.00,210.00 1066.00,210.00
             1066.00,210.00 1058.00,210.00 1058.00,210.00
             1058.00,210.00 1050.70,210.99 1050.70,210.99
             1050.70,210.99 1044.42,228.00 1044.42,228.00
             1044.42,228.00 1033.58,265.00 1033.58,265.00
             1033.58,265.00 1028.00,284.00 1028.00,284.00
             1028.00,284.00 1011.28,229.00 1011.28,229.00
             1010.20,225.41 1007.08,212.84 1004.49,211.02
             1002.71,209.77 999.14,210.00 997.00,210.00
             997.00,210.00 990.00,210.00 990.00,210.00
             990.00,210.00 983.02,234.00 983.02,234.00
             983.02,234.00 975.02,261.00 975.02,261.00
             973.16,267.07 970.89,278.49 967.00,283.00
             967.00,283.00 961.72,263.00 961.72,263.00
             961.72,263.00 950.98,227.00 950.98,227.00
             950.98,227.00 945.28,210.99 945.28,210.99
             945.28,210.99 938.00,210.00 938.00,210.00
             938.00,210.00 929.00,210.00 929.00,210.00 Z
           M 1079.00,210.00
           C 1079.00,210.00 1079.00,302.00 1079.00,302.00
             1079.00,302.00 1095.00,302.00 1095.00,302.00
             1095.00,302.00 1095.00,264.00 1095.00,264.00
             1095.00,264.00 1143.00,264.00 1143.00,264.00
             1143.00,264.00 1143.00,302.00 1143.00,302.00
             1143.00,302.00 1159.00,302.00 1159.00,302.00
             1159.00,302.00 1159.00,210.00 1159.00,210.00
             1159.00,210.00 1144.60,211.02 1144.60,211.02
             1144.60,211.02 1143.00,218.00 1143.00,218.00
             1143.00,218.00 1143.00,250.00 1143.00,250.00
             1143.00,250.00 1095.00,250.00 1095.00,250.00
             1095.00,250.00 1095.00,210.00 1095.00,210.00
             1095.00,210.00 1079.00,210.00 1079.00,210.00 Z
           M 1186.00,210.00
           C 1186.00,210.00 1186.00,302.00 1186.00,302.00
             1186.00,302.00 1201.00,302.00 1201.00,302.00
             1201.00,302.00 1201.00,210.00 1201.00,210.00
             1201.00,210.00 1186.00,210.00 1186.00,210.00 Z
           M 1217.00,210.00
           C 1217.00,210.00 1217.00,224.00 1217.00,224.00
             1217.00,224.00 1246.00,224.00 1246.00,224.00
             1246.00,224.00 1246.00,302.00 1246.00,302.00
             1246.00,302.00 1261.00,302.00 1261.00,302.00
             1261.00,302.00 1261.00,224.00 1261.00,224.00
             1261.00,224.00 1291.00,224.00 1291.00,224.00
             1291.00,224.00 1291.00,217.00 1291.00,217.00
             1290.84,208.63 1288.98,210.00 1273.00,210.00
             1273.00,210.00 1217.00,210.00 1217.00,210.00 Z
           M 1307.00,210.00
           C 1307.00,210.00 1307.00,302.00 1307.00,302.00
             1307.00,302.00 1374.00,302.00 1374.00,302.00
             1374.00,302.00 1374.00,288.00 1374.00,288.00
             1374.00,288.00 1322.00,288.00 1322.00,288.00
             1322.00,288.00 1322.00,263.00 1322.00,263.00
             1322.00,263.00 1367.00,263.00 1367.00,263.00
             1367.00,263.00 1367.00,249.00 1367.00,249.00
             1367.00,249.00 1322.00,249.00 1322.00,249.00
             1322.00,249.00 1322.00,224.00 1322.00,224.00
             1322.00,224.00 1372.00,224.00 1372.00,224.00
             1372.00,224.00 1372.00,210.00 1372.00,210.00
             1372.00,210.00 1307.00,210.00 1307.00,210.00 Z
           M 231.00,225.00
           C 231.00,225.00 261.65,265.00 261.65,265.00
             266.05,270.71 273.30,278.12 275.00,285.00
             275.00,285.00 229.00,296.85 229.00,296.85
             229.00,296.85 192.00,306.15 192.00,306.15
             192.00,306.15 158.00,315.00 158.00,315.00
             162.01,307.21 169.17,299.85 174.74,293.00
             174.74,293.00 201.39,260.00 201.39,260.00
             207.78,252.13 224.35,229.99 231.00,225.00 Z
           M 111.00,233.00
           C 111.00,233.00 135.86,288.00 135.86,288.00
             135.86,288.00 147.00,313.00 147.00,313.00
             147.00,313.00 122.00,299.20 122.00,299.20
             122.00,299.20 66.00,267.00 66.00,267.00
             67.76,261.54 73.51,258.79 78.00,255.58
             84.83,250.69 104.75,235.66 111.00,233.00 Z" />
</svg>
